<svg width="65" height="65" viewBox="0 0 65 65" fill="none" xmlns="http://www.w3.org/2000/svg">
<path d="M61.44 6.59995H64.5V15.7399H61.44V6.59995Z" fill="white" stroke="white"/>
<path d="M58.4 15.7401H61.44V18.7801H58.4V15.7401Z" fill="white" stroke="white"/>
<path d="M58.4 3.54004H61.44V6.60004H58.4V3.54004Z" fill="white" stroke="white"/>
<path d="M55.36 27.9199H58.4V43.1599H55.36V27.9199Z" fill="white" stroke="white"/>
<path d="M55.36 12.7H58.4V15.74H55.36V12.7Z" fill="white" stroke="white"/>
<path d="M52.3 61.46H55.36V64.5H52.3V61.46Z" fill="white" stroke="white"/>
<path d="M52.3 43.16H55.36V49.26H52.3V43.16Z" fill="white" stroke="white"/>
<path d="M52.3 21.84H55.36V27.92H52.3V21.84Z" fill="white" stroke="white"/>
<path d="M52.3 9.63998H55.36V12.7H52.3V9.63998Z" fill="white" stroke="white"/>
<path d="M49.26 0.5H58.4V3.54H49.26V0.5Z" fill="white" stroke="white"/>
<path d="M49.26 58.4001H52.3V61.4601H49.26V58.4001Z" fill="white" stroke="white"/>
<path d="M49.26 49.2599H52.3V52.2999H49.26V49.2599Z" fill="white" stroke="white"/>
<path d="M49.26 34.02H52.3V37.08H49.26V34.02Z" fill="white" stroke="white"/>
<path d="M49.26 18.78H52.3V21.84H49.26V18.78Z" fill="white" stroke="white"/>
<path d="M49.26 6.59995H52.3V9.63995H49.26V6.59995Z" fill="white" stroke="white"/>
<path d="M46.2 55.36H40.12V58.4H49.26V52.3H46.2V55.36Z" fill="white" stroke="white"/>
<path d="M46.2 15.7401H49.26V18.7801H46.2V15.7401Z" fill="white" stroke="white"/>
<path d="M46.2 3.54004H49.26V6.60004H46.2V3.54004Z" fill="white" stroke="white"/>
<path d="M43.16 46.22H46.2V49.26H43.16V46.22Z" fill="white" stroke="white"/>
<path d="M43.16 21.84H46.2V24.88H43.16V21.84Z" fill="white" stroke="white"/>
<path d="M43.16 34.02H37.06V30.98H34.02V21.84H30.98V30.98H27.92V40.12H37.06V37.08H43.16V34.02Z" fill="white" stroke="white"/>
<path d="M40.12 12.7H46.2V15.74H40.12V12.7Z" fill="white" stroke="white"/>
<path d="M24.88 58.4001H40.12V61.4601H24.88V58.4001Z" fill="white" stroke="white"/>
<path d="M30.98 52.3H34.02V55.36H30.98V52.3Z" fill="white" stroke="white"/>
<path d="M30.98 15.7401H34.02V18.7801H30.98V15.7401Z" fill="white" stroke="white"/>
<path d="M24.88 9.63998H40.12V12.7H24.88V9.63998Z" fill="white" stroke="white"/>
<path d="M18.78 55.36V52.3H15.74V58.4H24.88V55.36H18.78Z" fill="white" stroke="white"/>
<path d="M18.78 12.7H24.88V15.74H18.78V12.7Z" fill="white" stroke="white"/>
<path d="M18.78 46.22H21.82V49.26H18.78V46.22Z" fill="white" stroke="white"/>
<path d="M18.78 21.84H21.82V24.88H18.78V21.84Z" fill="white" stroke="white"/>
<path d="M15.74 15.7401H18.78V18.7801H15.74V15.7401Z" fill="white" stroke="white"/>
<path d="M15.74 3.54004H18.78V6.60004H15.74V3.54004Z" fill="white" stroke="white"/>
<path d="M12.68 58.4001H15.74V61.4601H12.68V58.4001Z" fill="white" stroke="white"/>
<path d="M12.68 49.2599H15.74V52.2999H12.68V49.2599Z" fill="white" stroke="white"/>
<path d="M12.68 34.02H15.74V37.08H12.68V34.02Z" fill="white" stroke="white"/>
<path d="M12.68 18.78H15.74V21.84H12.68V18.78Z" fill="white" stroke="white"/>
<path d="M12.68 6.59995H15.74V9.63995H12.68V6.59995Z" fill="white" stroke="white"/>
<path d="M9.64001 61.46H12.68V64.5H9.64001V61.46Z" fill="white" stroke="white"/>
<path d="M9.64001 43.16H12.68V49.26H9.64001V43.16Z" fill="white" stroke="white"/>
<path d="M9.64001 21.84H12.68V27.92H9.64001V21.84Z" fill="white" stroke="white"/>
<path d="M9.64001 9.63998H12.68V12.7H9.64001V9.63998Z" fill="white" stroke="white"/>
<path d="M6.60002 0.5H15.74V3.54H6.60002V0.5Z" fill="white" stroke="white"/>
<path d="M6.60002 27.9199H9.64002V43.1599H6.60002V27.9199Z" fill="white" stroke="white"/>
<path d="M6.60002 12.7H9.64002V15.74H6.60002V12.7Z" fill="white" stroke="white"/>
<path d="M3.53999 15.7401H6.59999V18.7801H3.53999V15.7401Z" fill="white" stroke="white"/>
<path d="M3.53999 3.54004H6.59999V6.60004H3.53999V3.54004Z" fill="white" stroke="white"/>
<path d="M0.5 6.59995H3.54V15.7399H0.5V6.59995Z" fill="white" stroke="white"/>
</svg>
