<svg width="32" height="32" viewBox="0 0 32 32" fill="none" xmlns="http://www.w3.org/2000/svg">
<path d="M30.48 8.385H32V11.425H30.48V8.385Z" fill="#E997EE"/>
<path d="M27.43 14.475H28.95V20.575H18.29V22.1H19.81V23.62H18.29V25.15H28.95V28.2H30.48V11.425H27.43V14.475ZM22.86 23.615H21.33V22.1H22.86V23.615ZM28.95 23.615H25.9V22.1H28.95V23.615Z" fill="#E997EE"/>
<path d="M28.9499 9.905V8.385H30.4799V6.855H27.4299V8.385H25.8999V11.425H27.4299V9.905H28.9499Z" fill="#E997EE"/>
<path d="M16.76 28.195V26.665H15.24V28.195H3.05005V29.715H28.9501V28.195H16.76Z" fill="#E997EE"/>
<path d="M21.3301 15.995V17.525H22.8601V19.045H24.3801V17.525H25.9001V15.995H27.4301V14.475H25.9001V12.955H24.3801V11.425H22.8601V12.955H21.3301V14.475H19.8101V15.995H21.3301Z" fill="#E997EE"/>
<path d="M18.29 12.955H19.81V14.475H18.29V12.955Z" fill="#E997EE"/>
<path d="M18.29 3.805H19.81V8.385H18.29V3.805Z" fill="#E997EE"/>
<path d="M16.76 25.145H18.29V26.665H16.76V25.145Z" fill="#E997EE"/>
<path d="M16.76 19.045H18.29V20.575H16.76V19.045Z" fill="#E997EE"/>
<path d="M16.76 11.425H18.29V12.955H16.76V11.425Z" fill="#E997EE"/>
<path d="M15.24 22.095H16.76V23.615H15.24V22.095Z" fill="#E997EE"/>
<path d="M15.24 17.525H16.76V19.045H15.24V17.525Z" fill="#E997EE"/>
<path d="M16.76 9.905H18.29V8.385H13.71V9.905H15.24V11.425H16.76V9.905Z" fill="#E997EE"/>
<path d="M15.24 5.335H16.76V6.855H15.24V5.335Z" fill="#E997EE"/>
<path d="M13.71 2.285H18.29V3.805H13.71V2.285Z" fill="#E997EE"/>
<path d="M13.71 25.145H15.24V26.665H13.71V25.145Z" fill="#E997EE"/>
<path d="M13.71 19.045H15.24V20.575H13.71V19.045Z" fill="#E997EE"/>
<path d="M13.71 11.425H15.24V12.955H13.71V11.425Z" fill="#E997EE"/>
<path d="M12.1899 12.955H13.7099V14.475H12.1899V12.955Z" fill="#E997EE"/>
<path d="M12.1899 3.805H13.7099V8.385H12.1899V3.805Z" fill="#E997EE"/>
<path d="M6.10007 15.995V17.525H7.62007V19.045H9.14007V17.525H10.6701V15.995H12.1901V14.475H10.6701V12.955H9.14007V11.425H7.62007V12.955H6.10007V14.475H4.57007V15.995H6.10007Z" fill="#E997EE"/>
<path d="M3.05002 9.905H4.57002V11.425H6.10002V8.385H4.57002V6.855H1.52002V8.385H3.05002V9.905Z" fill="#E997EE"/>
<path d="M13.71 25.145V23.615H12.19V22.1H13.71V20.58H3.05002V14.48H4.57002V11.43H1.52002V28.2H3.05002V25.15L13.71 25.145ZM9.14002 22.1H10.67V23.62H9.14002V22.1ZM3.05002 22.1H6.10002V23.62H3.05002V22.1Z" fill="#E997EE"/>
<path d="M0 8.385H1.52V11.425H0V8.385Z" fill="#E997EE"/>
</svg>
