<svg width="33" height="32" viewBox="0 0 33 32" fill="none" xmlns="http://www.w3.org/2000/svg">
<path d="M21.065 19.81H18.025V21.33H16.495V19.81H13.445V21.33H11.925V24.38H13.445V25.9H14.975V27.43H16.495V28.95H18.025V27.43H19.545V25.9H21.065V24.38H22.595V21.33H21.065V19.81Z" fill="white"/>
<path d="M28.685 10.66H30.215V22.85H28.685V10.66Z" fill="white"/>
<path d="M27.165 22.85H28.685V25.9H27.165V22.85Z" fill="white"/>
<path d="M27.165 9.14001H28.685V10.66H27.165V9.14001Z" fill="white"/>
<path d="M25.635 25.9H27.165V27.43H25.635V25.9Z" fill="white"/>
<path d="M25.635 7.62H27.165V9.13999H25.635V7.62Z" fill="white"/>
<path d="M24.115 27.43H25.635V28.95H24.115V27.43Z" fill="white"/>
<path d="M24.115 6.09003H25.635V7.62003H24.115V6.09003Z" fill="white"/>
<path d="M22.595 28.95H24.115V30.47H22.595V28.95Z" fill="white"/>
<path d="M22.595 4.57001H24.115V6.09001H22.595V4.57001Z" fill="white"/>
<path d="M21.065 3.03998H22.595V4.56998H21.065V3.03998Z" fill="white"/>
<path d="M10.405 30.47H22.595V32H10.405V30.47Z" fill="white"/>
<path d="M18.025 1.52002H21.065V3.04002H18.025V1.52002Z" fill="white"/>
<path d="M14.975 9.14001H16.495V15.23H14.975V9.14001Z" fill="white"/>
<path d="M13.445 4.57001H14.975V9.14001H13.445V4.57001Z" fill="white"/>
<path d="M11.925 3.03998H13.445V4.56998H11.925V3.03998Z" fill="white"/>
<path d="M18.025 1.52V0H8.875V1.52H10.405V3.04H11.925V1.52H18.025Z" fill="white"/>
<path d="M10.405 15.23H14.975V16.76H10.405V15.23Z" fill="white"/>
<path d="M8.875 28.95H10.405V30.47H8.875V28.95Z" fill="white"/>
<path d="M8.875 13.71H10.405V15.23H8.875V13.71Z" fill="white"/>
<path d="M5.83499 27.43H8.87499V28.95H5.83499V27.43Z" fill="white"/>
<path d="M8.87499 10.66H7.35499V12.19H5.83499V13.71H8.87499V10.66Z" fill="white"/>
<path d="M4.30499 25.9H5.83499V27.43H4.30499V25.9Z" fill="white"/>
<path d="M4.30499 13.71H5.83499V18.28H4.30499V13.71Z" fill="white"/>
<path d="M2.785 18.28H4.305V25.9H2.785V18.28Z" fill="white"/>
</svg>
