<svg width="48" height="44" viewBox="0 0 48 44" fill="none" xmlns="http://www.w3.org/2000/svg">
<g id="Group">
<path id="Vector" d="M45.72 25.715H48V28.01H45.72V25.715Z" fill="white"/>
<path id="Vector_2" d="M41.1451 23.4349H45.7201V25.7149H41.1451V23.4349Z" fill="white"/>
<path id="Vector_3" d="M41.1451 18.86H43.4251V21.155H41.1451V18.86Z" fill="white"/>
<path id="Vector_4" d="M34.29 21.1549V16.5799H32.01V14.2849H29.715V9.72495H32.01V7.42995H41.145V9.72495H43.425V18.8599H45.72V5.14995H43.425V2.85495H41.145V0.574951H32.01V2.85495H29.715V5.14995H27.435V12.0049H20.58V5.14995H18.285V2.85495H16.005V0.574951H6.85499V2.85495H4.57498V5.14995H2.29498V18.8599H4.57498V9.72495H6.85499V7.42995H16.005V9.72495H18.285V14.2849H16.005V16.5799H13.725V21.1549H6.85499V23.4349H13.725V32.5699H16.005V21.1549H18.285V18.8599H29.715V21.1549H32.01V32.5699H34.29V23.4349H41.145V21.1549H34.29Z" fill="white"/>
<path id="Vector_5" d="M36.57 41.72H38.865V44H36.57V41.72Z" fill="white"/>
<path id="Vector_6" d="M34.29 39.4399H36.57V41.7199H34.29V39.4399Z" fill="white"/>
<path id="Vector_7" d="M29.7151 37.1449H34.2901V39.4399H29.7151V37.1449Z" fill="white"/>
<path id="Vector_8" d="M29.7151 32.5699H32.0101V34.8649H29.7151V32.5699Z" fill="white"/>
<path id="Vector_9" d="M27.435 23.4349H29.715V28.0099H27.435V23.4349Z" fill="white"/>
<path id="Vector_10" d="M18.285 34.865H29.715V37.145H18.285V34.865Z" fill="white"/>
<path id="Vector_11" d="M20.58 30.2899H27.435V32.5699H20.58V30.2899Z" fill="white"/>
<path id="Vector_12" d="M18.285 23.4349H20.58V28.0099H18.285V23.4349Z" fill="white"/>
<path id="Vector_13" d="M16.005 32.5699H18.285V34.8649H16.005V32.5699Z" fill="white"/>
<path id="Vector_14" d="M13.725 37.1449H18.285V39.4399H13.725V37.1449Z" fill="white"/>
<path id="Vector_15" d="M11.43 39.4399H13.725V41.7199H11.43V39.4399Z" fill="white"/>
<path id="Vector_16" d="M9.15002 41.72H11.43V44H9.15002V41.72Z" fill="white"/>
<path id="Vector_17" d="M4.57501 18.86H6.85501V21.155H4.57501V18.86Z" fill="white"/>
<path id="Vector_18" d="M2.29498 23.4349H6.85499V25.7149H2.29498V23.4349Z" fill="white"/>
<path id="Vector_19" d="M0 25.715H2.295V28.01H0V25.715Z" fill="white"/>
</g>
</svg>
