<svg width="48" height="48" viewBox="0 0 48 48" fill="none" xmlns="http://www.w3.org/2000/svg">
<g id="User">
<path id="Vector" d="M45.705 18.285H48V29.715H45.705V18.285Z" fill="#E997EE"/>
<path id="Vector_2" d="M43.425 29.715H45.705V34.29H43.425V29.715Z" fill="#E997EE"/>
<path id="Vector_3" d="M43.425 13.71H45.705V18.285H43.425V13.71Z" fill="#E997EE"/>
<path id="Vector_4" d="M41.145 34.29H43.425V38.85H41.145V34.29Z" fill="#E997EE"/>
<path id="Vector_5" d="M41.145 9.15002H43.425V13.71H41.145V9.15002Z" fill="#E997EE"/>
<path id="Vector_6" d="M38.85 38.85H41.145V41.145H38.85V38.85Z" fill="#E997EE"/>
<path id="Vector_7" d="M38.85 6.85498H41.145V9.14998H38.85V6.85498Z" fill="#E997EE"/>
<path id="Vector_8" d="M34.275 41.145H38.85V43.425H34.275V41.145Z" fill="#E997EE"/>
<path id="Vector_9" d="M34.275 4.57495H38.85V6.85495H34.275V4.57495Z" fill="#E997EE"/>
<path id="Vector_10" d="M31.995 31.995H34.275V34.29H31.995V31.995Z" fill="#E997EE"/>
<path id="Vector_11" d="M13.71 22.86H15.99V20.565H31.995V22.86H34.275V31.995H36.57V13.71H34.275V11.43H31.995V9.15002H15.99V11.43H13.71V13.71H11.43V31.995H13.71V22.86Z" fill="#E997EE"/>
<path id="Vector_12" d="M29.715 43.425H34.275V45.7201H29.715V43.425Z" fill="#E997EE"/>
<path id="Vector_13" d="M29.715 34.29H31.995V36.57H29.715V34.29Z" fill="#E997EE"/>
<path id="Vector_14" d="M29.715 25.14H31.995V29.715H29.715V25.14Z" fill="#E997EE"/>
<path id="Vector_15" d="M29.715 2.28003H34.275V4.57503H29.715V2.28003Z" fill="#E997EE"/>
<path id="Vector_16" d="M18.285 45.72H29.715V48H18.285V45.72Z" fill="#E997EE"/>
<path id="Vector_17" d="M18.285 36.5699H29.715V38.8499H18.285V36.5699Z" fill="#E997EE"/>
<path id="Vector_18" d="M20.565 31.995H27.42V34.29H20.565V31.995Z" fill="#E997EE"/>
<path id="Vector_19" d="M18.285 0H29.715V2.28H18.285V0Z" fill="#E997EE"/>
<path id="Vector_20" d="M13.71 43.425H18.285V45.7201H13.71V43.425Z" fill="#E997EE"/>
<path id="Vector_21" d="M15.99 34.29H18.285V36.57H15.99V34.29Z" fill="#E997EE"/>
<path id="Vector_22" d="M15.99 25.14H18.285V29.715H15.99V25.14Z" fill="#E997EE"/>
<path id="Vector_23" d="M13.71 2.28003H18.285V4.57503H13.71V2.28003Z" fill="#E997EE"/>
<path id="Vector_24" d="M13.71 31.995H15.99V34.29H13.71V31.995Z" fill="#E997EE"/>
<path id="Vector_25" d="M9.135 41.145H13.71V43.425H9.135V41.145Z" fill="#E997EE"/>
<path id="Vector_26" d="M9.135 4.57495H13.71V6.85495H9.135V4.57495Z" fill="#E997EE"/>
<path id="Vector_27" d="M6.855 38.85H9.135V41.145H6.855V38.85Z" fill="#E997EE"/>
<path id="Vector_28" d="M6.855 6.85498H9.135V9.14998H6.855V6.85498Z" fill="#E997EE"/>
<path id="Vector_29" d="M4.575 34.29H6.855V38.85H4.575V34.29Z" fill="#E997EE"/>
<path id="Vector_30" d="M4.575 9.15002H6.855V13.71H4.575V9.15002Z" fill="#E997EE"/>
<path id="Vector_31" d="M2.28 29.715H4.575V34.29H2.28V29.715Z" fill="#E997EE"/>
<path id="Vector_32" d="M2.28 13.71H4.575V18.285H2.28V13.71Z" fill="#E997EE"/>
<path id="Vector_33" d="M0 18.285H2.28V29.715H0V18.285Z" fill="#E997EE"/>
</g>
</svg>
